<?xml version="1.0" encoding="utf-8"?>
<!-- Generator: Adobe Illustrator 23.0.3, SVG Export Plug-In . SVG Version: 6.00 Build 0)  -->
<svg version="1.1" id="Calque_1" xmlns="http://www.w3.org/2000/svg" xmlns:xlink="http://www.w3.org/1999/xlink" x="0px" y="0px"
	 viewBox="0 0 617.5 533.7" style="enable-background:new 0 0 617.5 533.7;" xml:space="preserve">
<style type="text/css">
	.st0{fill:url(#SVGID_1_);}
	.st1{fill:url(#SVGID_2_);}
	.st2{fill:url(#SVGID_3_);}
	.st3{fill:url(#SVGID_4_);}
	.st4{fill:url(#SVGID_5_);}
	.st5{fill:url(#SVGID_6_);}
	.st6{fill:url(#SVGID_7_);}
	.st7{fill:url(#SVGID_8_);}
	.st8{fill:url(#SVGID_9_);}
	.st9{fill:url(#SVGID_10_);}
	.st10{fill:url(#SVGID_11_);}
	.st11{fill:url(#SVGID_12_);}
	.st12{fill:url(#SVGID_13_);}
	.st13{fill:url(#SVGID_14_);}
	.st14{fill:url(#SVGID_15_);}
	.st15{fill:url(#SVGID_16_);}
	.st16{fill:url(#SVGID_17_);}
	.st17{fill:url(#SVGID_18_);}
	.st18{fill:url(#SVGID_19_);}
	.st19{fill:url(#SVGID_20_);}
	.st20{fill:url(#SVGID_21_);}
	.st21{fill:url(#SVGID_22_);}
	.st22{fill:url(#SVGID_23_);}
	.st23{fill:url(#SVGID_24_);}
	.st24{fill:url(#SVGID_25_);}
	.st25{fill:url(#SVGID_26_);}
	.st26{fill:url(#SVGID_27_);}
	.st27{fill:url(#SVGID_28_);}
	.st28{fill:url(#SVGID_29_);}
	.st29{fill:url(#SVGID_30_);}
	.st30{fill:url(#SVGID_31_);}
	.st31{fill:url(#SVGID_32_);}
	.st32{fill:url(#SVGID_33_);}
	.st33{fill:url(#SVGID_34_);}
	.st34{fill:url(#SVGID_35_);}
	.st35{fill:url(#SVGID_36_);}
	.st36{fill:url(#SVGID_37_);}
	.st37{fill:url(#SVGID_38_);}
	.st38{fill:url(#SVGID_39_);}
	.st39{fill:url(#SVGID_40_);}
	.st40{fill:url(#SVGID_41_);}
	.st41{fill:url(#SVGID_42_);}
	.st42{fill:url(#SVGID_43_);}
	.st43{fill:url(#SVGID_44_);}
	.st44{fill:url(#SVGID_45_);}
	.st45{fill:url(#SVGID_46_);}
	.st46{fill:url(#SVGID_47_);}
	.st47{fill:url(#SVGID_48_);}
	.st48{fill:url(#SVGID_49_);}
	.st49{fill:#FFFFFF;}
	.st50{fill:url(#SVGID_50_);}
	.st51{fill:url(#SVGID_51_);}
	.st52{fill:url(#SVGID_52_);}
	.st53{fill:url(#SVGID_53_);}
	.st54{fill:url(#SVGID_54_);}
</style>
<linearGradient id="SVGID_1_" gradientUnits="userSpaceOnUse" x1="182.7107" y1="58.4518" x2="-29.6987" y2="418.3672" gradientTransform="matrix(1 0 0 -1 0 573.408)">
	<stop  offset="0" style="stop-color:#006B00"/>
	<stop  offset="0.3587" style="stop-color:#3DB800"/>
	<stop  offset="0.6688" style="stop-color:#A3D700"/>
	<stop  offset="1" style="stop-color:#FFFFFF"/>
</linearGradient>
<path class="st0" d="M161.8,468.8c-9.7-1.1-19.1-2.9-28-5.4c-8.8-2.4-17.1-5.5-25-9.1c-7.7-3.6-14.9-7.8-21.7-12.7
	c-21.3-15.3-35.4-35.2-43.2-57.7c-7.3-21.1-9-44.5-5.9-68.7c3-22.9,10.3-46.8,21.7-70.6c10.9-22.8,25.5-45.7,43.8-68l-19.2,7.9
	l0.3-14.7c-21.4,25.3-38.8,51.4-52,77.5c-13.9,27.4-23.4,55.1-28,82.1c-4.9,28.7-4.3,56.8,2.8,82.5c7.6,27.7,22.9,52.8,46.9,72.6
	c7.6,6.3,15.9,11.9,24.8,16.7c9.1,5,18.9,9.2,29.2,12.6c10.5,3.5,21.6,6.2,33.2,8c11.8,1.9,24.2,2.9,36.9,3.1l27.6-30.1l-13.6-24.7
	C182,470.4,171.7,470,161.8,468.8z"/>
<linearGradient id="SVGID_2_" gradientUnits="userSpaceOnUse" x1="244.9731" y1="-0.6276" x2="65.9577" y2="302.7039" gradientTransform="matrix(1 0 0 -1 0 573.408)">
	<stop  offset="0" style="stop-color:#006B00"/>
	<stop  offset="0.3587" style="stop-color:#3DB800"/>
	<stop  offset="0.6688" style="stop-color:#A3D700"/>
	<stop  offset="1" style="stop-color:#FFFFFF"/>
</linearGradient>
<path class="st1" d="M192.5,470.2c-19.1-0.6-32.2-1.5-54.5-6.6c-11.8-2.3-48.7-14.7-70.9-41.3c-23.1-25.9-27.2-58.4-27.2-58
	c-0.3,0.2-6-31,1.9-64.5c6.7-33.6,24.6-66.9,31-77.3c11.7-19.6,19.3-30.3,30.7-45.6c-12.4,14.6-20.6,24.9-32.4,44.7
	c-6.5,10.5-24.4,44-31.2,77.9C32,333.3,37.7,365,38,364.8c0-0.5,4.2,32.5,27.6,58.9c22.7,27.1,60,39.6,72,41.9
	C160.1,470.7,173.4,470.9,192.5,470.2z"/>
<linearGradient id="SVGID_3_" gradientUnits="userSpaceOnUse" x1="176.5787" y1="54.8328" x2="-35.8308" y2="414.7483" gradientTransform="matrix(1 0 0 -1 0 573.408)">
	<stop  offset="0" style="stop-color:#003700"/>
	<stop  offset="0.3587" style="stop-color:#268600"/>
	<stop  offset="0.6688" style="stop-color:#A3D700"/>
	<stop  offset="1" style="stop-color:#FFFFFF"/>
</linearGradient>
<path class="st2" d="M84.7,169.8c-15.2,16.9-25.2,28.9-39.6,52.1c-7.9,12.3-29.8,51.7-38.8,91.8c-10.3,39.9-4.9,77.7-4.7,77.4
	c0.2-0.6,3.4,38.7,29.4,71.6c12.6,16.2,29.4,30.1,45.4,38.8c15.8,8.9,30.1,13.6,37.2,15.6c26.4,7.4,42.2,8.1,64.9,7.8
	c-22.6-1.7-38.1-3.5-64-10.8c-7-2.1-21-6.6-36.5-15.4c-15.6-8.6-32.1-22.1-44.4-38C8.2,428.6,5,390.1,4.8,390.6
	c-0.2,0.2-5.6-36.9,4.7-76.3c8.9-39.6,30.5-78.6,38.4-90.9C62,200.5,71.1,188,84.7,169.8z"/>
<linearGradient id="SVGID_4_" gradientUnits="userSpaceOnUse" x1="111.9688" y1="383.2144" x2="638.1241" y2="674.8659" gradientTransform="matrix(1 0 0 -1 0 573.408)">
	<stop  offset="0" style="stop-color:#006B00"/>
	<stop  offset="0.3587" style="stop-color:#3DB800"/>
	<stop  offset="0.6688" style="stop-color:#A3D700"/>
	<stop  offset="1" style="stop-color:#FFFFFF"/>
</linearGradient>
<path class="st3" d="M180.5,104.1c22-16.2,45.5-30.2,69.4-41.6c24.3-11.6,49.6-20.7,74.7-26.6c26-6.1,52.3-8.9,77.8-7.5
	c8.2,0.5,16,1.4,23.5,2.7c7.7,1.3,15,3.1,22,5.2c7.1,2.2,13.9,4.8,20.4,7.9c6.5,3.1,12.7,6.6,18.5,10.5l9.3-19.4l30-5.3
	c-7.2-4.5-14.9-8.5-23-12c-7.9-3.4-16.3-6.3-25.1-8.6c-8.6-2.3-17.5-4.1-26.8-5.4c-9.1-1.3-18.6-2.1-28.4-2.4
	c-29.7-0.9-60.1,3-89.9,10.5c-28.6,7.2-57.3,17.8-84.8,31.2c-27,13.1-53.5,29-78.3,47.3c-24.9,18.3-48.7,39.3-70.4,62.6v14.3l19-7.9
	C137.4,138.9,158.4,120.3,180.5,104.1z"/>
<linearGradient id="SVGID_5_" gradientUnits="userSpaceOnUse" x1="-27.9886" y1="296.032" x2="418.2279" y2="543.3728" gradientTransform="matrix(1 0 0 -1 0 573.408)">
	<stop  offset="0" style="stop-color:#006B00"/>
	<stop  offset="0.3587" style="stop-color:#3DB800"/>
	<stop  offset="0.6688" style="stop-color:#A3D700"/>
	<stop  offset="1" style="stop-color:#FFFFFF"/>
</linearGradient>
<path class="st4" d="M118.4,159.6c13.7-13.6,23.2-22.6,40.8-37.5c9.4-8.1,39.2-31.3,69.6-47.6c30.1-16.9,59.8-26.9,59.8-26.9
	c0,0.1,29.4-11.1,63.6-15.8c17-2.5,35-3.2,50.2-2.3c15.2,0.8,27.4,3.4,33.5,4.7c22.3,5.6,34.5,10.8,51,20.6
	c-15.9-10.9-28.1-16.9-50.6-22.5c-6.1-1.3-18.5-3.9-33.9-4.7c-15.3-0.8-33.5-0.2-50.6,2.3c-34.4,4.7-64,16.1-63.9,15.9
	c0.1,0-29.9,10.1-60.1,27c-30.5,16.3-60.4,39.6-69.9,47.8C140.2,135.6,131.1,145.1,118.4,159.6z"/>
<linearGradient id="SVGID_6_" gradientUnits="userSpaceOnUse" x1="117.1524" y1="388.4433" x2="635.0051" y2="675.4926" gradientTransform="matrix(1 0 0 -1 0 573.408)">
	<stop  offset="0" style="stop-color:#002D00"/>
	<stop  offset="0.3587" style="stop-color:#2A9E00"/>
	<stop  offset="0.6688" style="stop-color:#A3D700"/>
	<stop  offset="1" style="stop-color:#FFFFFF"/>
</linearGradient>
<path class="st5" d="M526.2,30c-18.7-12.1-33-18.7-59.1-24.8c-14-3.8-58.1-8.5-97.7-1.9c-39.7,5.6-74,18.6-73.9,18.5
	c0-0.1-34.5,11.8-69.5,31.1c-35.3,18.9-70,45.5-80.9,55c-20.5,17.2-31,28.4-45.6,45.2c16.1-15.5,27.2-25.7,47.6-42.8
	c10.9-9.4,45.4-35.9,80.4-54.7c34.8-19.2,69.1-31.1,69.1-30.9c-0.1,0.1,34-12.8,73.3-18.3c39.3-6.5,82.8-1.9,96.6,1.8
	C492.2,14.3,506.5,19.6,526.2,30z"/>
<linearGradient id="SVGID_7_" gradientUnits="userSpaceOnUse" x1="573.8528" y1="547.0369" x2="113.7638" y2="-71.9496" gradientTransform="matrix(1 0 0 -1 0 573.408)">
	<stop  offset="0" style="stop-color:#006B00"/>
	<stop  offset="0.3587" style="stop-color:#3DB800"/>
	<stop  offset="0.6688" style="stop-color:#A3D700"/>
	<stop  offset="1" style="stop-color:#FFFFFF"/>
</linearGradient>
<path class="st6" d="M576.2,82.1c-8.7-15.7-20.2-29.3-34-40.6L511,46.8l-9.3,20c11.1,10.4,20,22.7,26.4,36.8c4,8.7,7,18,9,27.9
	C547.5,123.4,566.1,106.4,576.2,82.1z"/>
<linearGradient id="SVGID_8_" gradientUnits="userSpaceOnUse" x1="587.2087" y1="537.1087" x2="127.1184" y2="-81.8798" gradientTransform="matrix(1 0 0 -1 0 573.408)">
	<stop  offset="0" style="stop-color:#006B00"/>
	<stop  offset="0.3587" style="stop-color:#3DB800"/>
	<stop  offset="0.6688" style="stop-color:#A3D700"/>
	<stop  offset="1" style="stop-color:#FFFFFF"/>
</linearGradient>
<path class="st7" d="M293.9,449.6c-24,8.9-47.8,15-70.9,18.1l15.1,25.3l-27.8,30.7c22.1-2.1,44.9-6.5,68-13.2
	c9.9-19.4,25.7-42.9,25.7-42.9C300.6,463,296.6,455.1,293.9,449.6z"/>
<linearGradient id="SVGID_9_" gradientUnits="userSpaceOnUse" x1="666.6053" y1="663.2127" x2="282.6908" y2="146.7086" gradientTransform="matrix(1 0 0 -1 0 573.408)">
	<stop  offset="0" style="stop-color:#006B00"/>
	<stop  offset="0.3587" style="stop-color:#3DB800"/>
	<stop  offset="0.6688" style="stop-color:#A3D700"/>
	<stop  offset="1" style="stop-color:#FFFFFF"/>
</linearGradient>
<path class="st8" d="M223,467.7c25.6-3.3,43.3-7.2,71.3-17.3c-0.3-0.6-0.6-1.2-0.8-1.8C265.8,458.7,248.4,463.3,223,467.7z"/>
<linearGradient id="SVGID_10_" gradientUnits="userSpaceOnUse" x1="662.3979" y1="666.3437" x2="278.4818" y2="149.8372" gradientTransform="matrix(1 0 0 -1 0 573.408)">
	<stop  offset="0" style="stop-color:#006B00"/>
	<stop  offset="0.3587" style="stop-color:#3DB800"/>
	<stop  offset="0.6688" style="stop-color:#A3D700"/>
	<stop  offset="1" style="stop-color:#FFFFFF"/>
</linearGradient>
<path class="st9" d="M501.8,66.8c18,19,27.9,35.5,34.4,65.4c0.5-0.4,1.1-0.8,1.7-1.3C531.2,101.1,520.5,84.7,501.8,66.8z"/>
<linearGradient id="SVGID_11_" gradientUnits="userSpaceOnUse" x1="581.5549" y1="541.3114" x2="121.4641" y2="-77.6776" gradientTransform="matrix(1 0 0 -1 0 573.408)">
	<stop  offset="0" style="stop-color:#001D00"/>
	<stop  offset="0.3587" style="stop-color:#20A800"/>
	<stop  offset="0.6688" style="stop-color:#A3D700"/>
	<stop  offset="1" style="stop-color:#FFFFFF"/>
</linearGradient>
<path class="st10" d="M573,74.6c-8.2-12.4-17.8-22.8-30.8-33c12.3,11,21.2,21.8,28.8,34.2c1.5,2.6,3,5.2,4.5,7.9c0.4-1,0.8-2,1.2-3
	C575.6,78.6,574.3,76.5,573,74.6z"/>
<linearGradient id="SVGID_12_" gradientUnits="userSpaceOnUse" x1="596.6404" y1="530.0962" x2="136.5504" y2="-88.8918" gradientTransform="matrix(1 0 0 -1 0 573.408)">
	<stop  offset="0" style="stop-color:#001D00"/>
	<stop  offset="0.3587" style="stop-color:#20A800"/>
	<stop  offset="0.6688" style="stop-color:#A3D700"/>
	<stop  offset="1" style="stop-color:#FFFFFF"/>
</linearGradient>
<path class="st11" d="M210.3,523.7c24.7-1.9,43.5-4.8,67.1-11.5c0.6-1.2,1.2-2.4,1.8-3.6C254.6,516.1,235.7,520.1,210.3,523.7z"/>
<g>
	
		<radialGradient id="SVGID_13_" cx="5848.2671" cy="-4914.6802" r="287.0746" fx="5824.2642" fy="-4922.1631" gradientTransform="matrix(-9.030000e-02 -0.9572 0.9572 -9.030000e-02 5669.5771 5406.6245)" gradientUnits="userSpaceOnUse">
		<stop  offset="0" style="stop-color:#FFFFFF"/>
		<stop  offset="0.319" style="stop-color:#DFF69C"/>
		<stop  offset="0.3614" style="stop-color:#DCF598"/>
		<stop  offset="0.408" style="stop-color:#D5F28A"/>
		<stop  offset="0.4567" style="stop-color:#C9ED74"/>
		<stop  offset="0.5068" style="stop-color:#B8E655"/>
		<stop  offset="0.5575" style="stop-color:#A2DD2E"/>
		<stop  offset="0.6074" style="stop-color:#88D200"/>
		<stop  offset="0.7914" style="stop-color:#00A800"/>
		<stop  offset="1" style="stop-color:#006B00"/>
	</radialGradient>
	<path class="st12" d="M400.1,406.4c55.3-39.2,124.9-94.3,155.3-158.1c23.8-50,31.6-109,29.1-157.3l0,0
		c34.9,113.9,53.1,214-11.5,311.5c-72.4,109.2-183.2,93.3-227.8,81.3c-6.7-1.8-12.3-4.7-16.9-8C335.6,465,357,437,400.1,406.4z"/>
	
		<radialGradient id="SVGID_14_" cx="5824.6938" cy="-4962.9907" r="287.1011" fx="5769.6758" fy="-4961.6909" gradientTransform="matrix(-9.030000e-02 -0.9572 0.9572 -9.030000e-02 5669.5771 5406.6245)" gradientUnits="userSpaceOnUse">
		<stop  offset="0" style="stop-color:#FFFFFF"/>
		<stop  offset="0.319" style="stop-color:#DFF69C"/>
		<stop  offset="0.3614" style="stop-color:#DCF598"/>
		<stop  offset="0.408" style="stop-color:#D5F28A"/>
		<stop  offset="0.4567" style="stop-color:#C9ED74"/>
		<stop  offset="0.5068" style="stop-color:#B8E655"/>
		<stop  offset="0.5575" style="stop-color:#A2DD2E"/>
		<stop  offset="0.6074" style="stop-color:#88D200"/>
		<stop  offset="0.7914" style="stop-color:#00A800"/>
		<stop  offset="1" style="stop-color:#006B00"/>
	</radialGradient>
	<path class="st13" d="M573,402.5C573,402.5,572.9,402.5,573,402.5c-72.4,109.2-183.2,93.4-227.8,81.3c-6.7-1.8-12.3-4.7-16.9-8
		c2.8-4.2,7.7-10.8,15.1-19.2c4.5,3.1,9.9,5.8,16.3,7.6C401.4,475.4,501,490,573,402.5z"/>
	
		<radialGradient id="SVGID_15_" cx="5872.0469" cy="-4923.7798" r="287.1067" fx="5937.019" fy="-4874.9204" gradientTransform="matrix(-9.030000e-02 -0.9572 0.9572 -9.030000e-02 5669.5771 5406.6245)" gradientUnits="userSpaceOnUse">
		<stop  offset="0" style="stop-color:#FFFFFF"/>
		<stop  offset="0.319" style="stop-color:#DFF69C"/>
		<stop  offset="0.3614" style="stop-color:#DCF598"/>
		<stop  offset="0.408" style="stop-color:#D5F28A"/>
		<stop  offset="0.4567" style="stop-color:#C9ED74"/>
		<stop  offset="0.5068" style="stop-color:#B8E655"/>
		<stop  offset="0.5575" style="stop-color:#A2DD2E"/>
		<stop  offset="0.6074" style="stop-color:#88D200"/>
		<stop  offset="0.7914" style="stop-color:#00A800"/>
		<stop  offset="1" style="stop-color:#006B00"/>
	</radialGradient>
	<path class="st14" d="M328.3,475.8c7.3-10.8,28.7-38.8,71.9-69.4c55.2-39.2,124.8-94.3,155.2-158.1
		c23.8-49.9,31.5-108.7,29.1-156.9c9.9,59,2.4,113.4-16.9,164.6c-26.3,69.7-98.4,123.2-157.6,166c-31.9,23-50.6,44.1-62.9,61.9
		c-0.1,0-1.9,0-2,0C338.4,482,332.9,479.1,328.3,475.8z"/>
	
		<radialGradient id="SVGID_16_" cx="5828.7905" cy="-4787.0381" r="309.6475" fx="5815.6626" fy="-5022.5161" gradientTransform="matrix(-9.030000e-02 -0.9572 0.9572 -9.030000e-02 5669.5771 5406.6245)" gradientUnits="userSpaceOnUse">
		<stop  offset="0" style="stop-color:#88D200"/>
		<stop  offset="0.6442" style="stop-color:#00A800"/>
		<stop  offset="1" style="stop-color:#004E00"/>
	</radialGradient>
	<path class="st15" d="M580.1,390.9c0.3-0.5,0.6-1,0.9-1.5c-2.6,4.4-5.3,8.7-8.2,13c-72.4,109.2-183.2,93.3-227.8,81.3
		c-6.7-1.8-12.3-4.7-16.9-8c1.8-2.7,4.5-6.4,8.1-11c4.4,3,9.7,5.7,15.9,7.3C396.9,484.2,507.8,500.1,580.1,390.9z"/>
	
		<radialGradient id="SVGID_17_" cx="6047.2925" cy="-5005.561" r="387.5107" fx="6002.0205" fy="-5089.3472" gradientTransform="matrix(-9.030000e-02 -0.9572 0.9572 -9.030000e-02 5669.5771 5406.6245)" gradientUnits="userSpaceOnUse">
		<stop  offset="0" style="stop-color:#FFFFFF"/>
		<stop  offset="0.319" style="stop-color:#DFF69C"/>
		<stop  offset="0.3948" style="stop-color:#DCF598"/>
		<stop  offset="0.4781" style="stop-color:#D5F28A"/>
		<stop  offset="0.5651" style="stop-color:#C9ED74"/>
		<stop  offset="0.6547" style="stop-color:#B8E655"/>
		<stop  offset="0.7452" style="stop-color:#A2DD2E"/>
		<stop  offset="0.8344" style="stop-color:#88D200"/>
		<stop  offset="1" style="stop-color:#00A800"/>
	</radialGradient>
	<path class="st16" d="M309.4,451.9c-58.6-105.5,18.4-193.2,18.4-193.2c77.7-90.3,158.4-60.5,227-126.5c23.9-23,29.6-40.8,29.7-41.2
		c2.7,56.1-5.3,107.3-29.1,157.3c-30.4,63.8-100,118.9-155.3,158.1C357,437,335.6,465,328.2,475.8
		C315.9,464.9,309.4,451.9,309.4,451.9z"/>
	
		<radialGradient id="SVGID_18_" cx="6067.353" cy="-5063.3218" r="387.5397" fx="5901.144" fy="-5155.5396" gradientTransform="matrix(-9.030000e-02 -0.9572 0.9572 -9.030000e-02 5669.5771 5406.6245)" gradientUnits="userSpaceOnUse">
		<stop  offset="0" style="stop-color:#FFFFFF"/>
		<stop  offset="0.319" style="stop-color:#DFF69C"/>
		<stop  offset="0.3948" style="stop-color:#DCF598"/>
		<stop  offset="0.4781" style="stop-color:#D5F28A"/>
		<stop  offset="0.5651" style="stop-color:#C9ED74"/>
		<stop  offset="0.6547" style="stop-color:#B8E655"/>
		<stop  offset="0.7452" style="stop-color:#A2DD2E"/>
		<stop  offset="0.8344" style="stop-color:#88D200"/>
		<stop  offset="1" style="stop-color:#00A800"/>
	</radialGradient>
	<path class="st17" d="M581.9,167.3c-2.3,12.8-5,25.6-8.5,38.2c-1.9,6.9-4,13.8-6.2,20.7c-1.7,5.3-4.6,9.9-6.3,15.1
		c-0.4,1.2,0.1,2.3,0.9,3c-1.2,2.7-2.4,5.5-3.7,8.2c-30.4,63.8-100,118.9-155.3,158.1c-43.1,30.6-64.5,58.6-71.9,69.4
		c-8.3-7.3-13.9-15.5-16.7-20.2c11.7-14.2,40.5-43.9,81.3-70.8c56.6-37.4,127-91.4,158.8-154.5c17-33.8,26.7-68.3,30.6-104.6
		C584.7,142.3,584.1,154.8,581.9,167.3z"/>
	
		<radialGradient id="SVGID_19_" cx="5997.562" cy="-5010.9888" r="387.5144" fx="5952.2896" fy="-5094.7759" gradientTransform="matrix(-9.030000e-02 -0.9572 0.9572 -9.030000e-02 5669.5771 5406.6245)" gradientUnits="userSpaceOnUse">
		<stop  offset="0" style="stop-color:#FFFFFF"/>
		<stop  offset="0.319" style="stop-color:#DFF69C"/>
		<stop  offset="0.3948" style="stop-color:#DCF598"/>
		<stop  offset="0.4781" style="stop-color:#D5F28A"/>
		<stop  offset="0.5651" style="stop-color:#C9ED74"/>
		<stop  offset="0.6547" style="stop-color:#B8E655"/>
		<stop  offset="0.7452" style="stop-color:#A2DD2E"/>
		<stop  offset="0.8344" style="stop-color:#88D200"/>
		<stop  offset="1" style="stop-color:#00A800"/>
	</radialGradient>
	<path class="st18" d="M330.6,443.4c0,0,3.6,7.3,10.7,15.5c-6.3,7.3-10.5,13.1-13,16.9c-12.4-10.9-18.9-23.9-18.9-23.9
		c-58.6-105.5,18.4-193.2,18.4-193.2c32.3-37.5,65.1-54.3,97.4-65.8c-25.4,11.4-50.9,28-76.2,57.4C349,250.2,272.1,338,330.6,443.4z
		"/>
	
		<radialGradient id="SVGID_20_" cx="5966.5205" cy="-4810.2573" r="387.3615" fx="5950.0977" fy="-5104.8345" gradientTransform="matrix(-9.030000e-02 -0.9572 0.9572 -9.030000e-02 5669.5771 5406.6245)" gradientUnits="userSpaceOnUse">
		<stop  offset="0" style="stop-color:#88D200"/>
		<stop  offset="0.6442" style="stop-color:#00A800"/>
		<stop  offset="1" style="stop-color:#004E00"/>
	</radialGradient>
	<path class="st19" d="M551.1,141.5c-30.8,29.4-89.3,44.4-89.3,44.4c-40.2,12.3-81.7,26.2-122.5,72.8c0,0-76.4,85.8-18.5,188.7
		c0,0,4.9,9.7,14.3,19.2c-3,3.8-5.2,6.9-6.8,9.3C315.9,465,309.4,452,309.4,452c-58.6-105.6,18.4-193.3,18.4-193.3
		c77.7-90.3,158.4-60.5,227-126.5c13.4-12.9,21.1-24.2,25.3-31.6c0.1-0.1-0.1-0.3-0.1-0.4c3.1-5.7,4.5-9,4.5-9.1l0,0
		C577.6,112.2,565.9,127.3,551.1,141.5z"/>
	
		<radialGradient id="SVGID_21_" cx="6447.5562" cy="-4780.9204" r="711.4829" fx="6417.3911" fy="-5321.9824" gradientTransform="matrix(-9.030000e-02 -0.9572 0.9572 -9.030000e-02 5669.5771 5406.6245)" gradientUnits="userSpaceOnUse">
		<stop  offset="0" style="stop-color:#88D200"/>
		<stop  offset="0.6442" style="stop-color:#00A800"/>
		<stop  offset="1" style="stop-color:#004E00"/>
	</radialGradient>
	<path class="st20" d="M584.5,91c8.9,26.8,14.9,45.1,22.3,78.1c3.9,17.7,15.3,72.6,8.6,123.3c-5.4,51-29.9,91.8-29.6,91.5
		c-0.3-0.7-20.6,42.8-62.1,73.3c-40.8,32.4-99,37.7-116.8,36.4c-17-0.2-30.3-2.1-42.6-4.5c-12.1-2.9-24.5-4.7-36-13.3
		c11.9,7.9,24.2,8.9,36.3,11.4c12.3,2,25.5,3.6,42.3,3.8c17.6,1.3,75-3.9,115.2-35.9c40.9-30.1,61.1-73.1,61.4-72.4
		c-0.2,0.3,24-40,29.3-90.5c6.6-50.1-4.7-104.8-8.5-122.4C596.9,136.8,591.8,118.3,584.5,91z"/>
	
		<radialGradient id="SVGID_22_" cx="5990.729" cy="-4680.2568" r="388.907" fx="6145.252" fy="-5030.2412" gradientTransform="matrix(-9.030000e-02 -0.9572 0.9572 -9.030000e-02 5669.5771 5406.6245)" gradientUnits="userSpaceOnUse">
		<stop  offset="0" style="stop-color:#88D200"/>
		<stop  offset="0.6442" style="stop-color:#00A800"/>
		<stop  offset="1" style="stop-color:#004E00"/>
	</radialGradient>
	<path class="st21" d="M328.3,475.8c-9.8-8.4-16.6-17.3-21.9-27.6c-5.5-10.1-10.7-21.3-14.8-36.4c-2.3-8.1-5.9-24.8-5.5-45.5
		c0.3-20.6,5.6-44.8,15.1-66.1c17.9-43.9,54.1-69.9,53.4-69.9c-0.4-0.1,32.8-28.1,77.8-41.4c22-7.4,45.3-13.5,64.1-21.3
		c18.9-7.5,33-16.7,39.7-21.6c24-18.8,36.9-31.9,48.3-55c-9.9,23.9-22.4,38-46.7,57.2c-6.8,5-21.1,14.3-40.2,22
		c-19,7.9-42.5,14.1-64.3,21.4c-44.6,13.2-77.3,40.8-76.9,40.9c0.6,0-34.9,25.6-52.6,68.9c-9.3,21-14.5,44.8-14.9,65.1
		c-0.5,20.3,3.1,36.8,5.4,44.8c4,14.8,8.8,26,13.9,36.2C312.9,457.7,319,466.7,328.3,475.8z"/>
	
		<radialGradient id="SVGID_23_" cx="5928.3379" cy="-4648.7095" r="193.0491" fx="6065.5684" fy="-4512.9312" gradientTransform="matrix(-0.1226 -0.9536 0.9536 -0.1226 5605.4702 5338.8062)" gradientUnits="userSpaceOnUse">
		<stop  offset="0" style="stop-color:#FFFFFF"/>
		<stop  offset="0.319" style="stop-color:#DFF69C"/>
		<stop  offset="0.3948" style="stop-color:#DCF598"/>
		<stop  offset="0.4781" style="stop-color:#D5F28A"/>
		<stop  offset="0.5651" style="stop-color:#C9ED74"/>
		<stop  offset="0.6547" style="stop-color:#B8E655"/>
		<stop  offset="0.7452" style="stop-color:#A2DD2E"/>
		<stop  offset="0.8344" style="stop-color:#88D200"/>
		<stop  offset="1" style="stop-color:#00A800"/>
	</radialGradient>
	<path class="st22" d="M440.2,386.6c0.2-0.2,0.3-0.4,0.3-0.6c24.6-0.4,63.5-3.6,104.7-17.1c0,0-59.7,24.7-112.5,24.2
		C435.2,391,437.7,388.8,440.2,386.6z"/>
	
		<radialGradient id="SVGID_24_" cx="5733.8921" cy="-4817.4468" r="113.9605" fx="5729.0605" fy="-4904.1104" gradientTransform="matrix(-9.030000e-02 -0.9572 0.9572 -9.030000e-02 5669.5771 5406.6245)" gradientUnits="userSpaceOnUse">
		<stop  offset="0" style="stop-color:#88D200"/>
		<stop  offset="0.6442" style="stop-color:#00A800"/>
		<stop  offset="1" style="stop-color:#004E00"/>
	</radialGradient>
	<path class="st23" d="M447.2,382c0.2-0.2,0.3-0.4,0.3-0.6c22.9,0.4,59.1-1.4,97.7-12.6c0,0-56.2,21.1-105.2,19
		C442.5,385.9,444.9,384,447.2,382z"/>
	
		<radialGradient id="SVGID_25_" cx="5281.9478" cy="-5224.6699" r="241.4012" fx="5306.7803" fy="-5283.7842" gradientTransform="matrix(-3.980000e-02 -1.0223 1.012 -3.810000e-02 5884.1265 5423.7031)" gradientUnits="userSpaceOnUse">
		<stop  offset="0" style="stop-color:#FFFFFF"/>
		<stop  offset="0.319" style="stop-color:#DFF69C"/>
		<stop  offset="0.3948" style="stop-color:#DCF598"/>
		<stop  offset="0.4781" style="stop-color:#D5F28A"/>
		<stop  offset="0.5651" style="stop-color:#C9ED74"/>
		<stop  offset="0.6547" style="stop-color:#B8E655"/>
		<stop  offset="0.7452" style="stop-color:#A2DD2E"/>
		<stop  offset="0.8344" style="stop-color:#88D200"/>
		<stop  offset="1" style="stop-color:#00A800"/>
	</radialGradient>
	<path class="st24" d="M447.4,257c0,0,3.6,65.7-14.9,115.1c-0.3,0-0.5,0-0.8,0.2c-2.8,2.4-6,4.4-9.2,6.4
		C429.1,362.4,446.2,314.6,447.4,257z"/>
	
		<radialGradient id="SVGID_26_" cx="5848.4482" cy="-5023.2876" r="179.8008" fx="5901.2695" fy="-5155.6416" gradientTransform="matrix(-9.030000e-02 -0.9572 0.9572 -9.030000e-02 5669.5771 5406.6245)" gradientUnits="userSpaceOnUse">
		<stop  offset="0" style="stop-color:#88D200"/>
		<stop  offset="0.6442" style="stop-color:#00A800"/>
		<stop  offset="1" style="stop-color:#004E00"/>
	</radialGradient>
	<path class="st25" d="M447.4,257c0,0,6.8,61.5-8.2,108.8c-0.2,0-0.5,0-0.7,0.2c-2.6,2.4-5.5,4.5-8.4,6.5
		C435.4,356.9,449.2,311.1,447.4,257z"/>
	
		<radialGradient id="SVGID_27_" cx="6008.9116" cy="-4533.522" r="321.8788" fx="6237.7217" fy="-4307.1333" gradientTransform="matrix(-0.129 -0.9528 0.9528 -0.129 5593.3979 5326.0352)" gradientUnits="userSpaceOnUse">
		<stop  offset="0" style="stop-color:#FFFFFF"/>
		<stop  offset="0.319" style="stop-color:#DFF69C"/>
		<stop  offset="0.3948" style="stop-color:#DCF598"/>
		<stop  offset="0.4781" style="stop-color:#D5F28A"/>
		<stop  offset="0.5651" style="stop-color:#C9ED74"/>
		<stop  offset="0.6547" style="stop-color:#B8E655"/>
		<stop  offset="0.7452" style="stop-color:#A2DD2E"/>
		<stop  offset="0.8344" style="stop-color:#88D200"/>
		<stop  offset="1" style="stop-color:#00A800"/>
	</radialGradient>
	<path class="st26" d="M502.3,332c0.6-1,1.4-1.8,2.1-2.7c0.9-1.2,1.8-2.5,3-3.4c0.2-0.2,0.3-0.4,0.3-0.5c17.7-5,37.1-12,56.8-21.6
		C564.5,303.7,537,319.9,502.3,332z"/>
	
		<radialGradient id="SVGID_28_" cx="5808.8501" cy="-4809.9907" r="70.1246" fx="5805.877" fy="-4863.3184" gradientTransform="matrix(-9.030000e-02 -0.9572 0.9572 -9.030000e-02 5669.5771 5406.6245)" gradientUnits="userSpaceOnUse">
		<stop  offset="0" style="stop-color:#88D200"/>
		<stop  offset="0.6442" style="stop-color:#00A800"/>
		<stop  offset="1" style="stop-color:#004E00"/>
	</radialGradient>
	<path class="st27" d="M506.4,327.4c0.6-0.9,1.4-1.6,2-2.4c0.9-1,1.7-2.2,2.8-3c0.2-0.1,0.3-0.3,0.3-0.5c16.4-4,34.5-9.6,53-17.7
		C564.5,303.7,538.7,317.6,506.4,327.4z"/>
	
		<radialGradient id="SVGID_29_" cx="5266.8779" cy="-5029.9883" r="132.2411" fx="5266.02" fy="-5066.1333" gradientTransform="matrix(-4.660000e-02 -1.0242 1.0457 -4.970000e-02 5947.605 5390.8999)" gradientUnits="userSpaceOnUse">
		<stop  offset="0" style="stop-color:#FFFFFF"/>
		<stop  offset="0.319" style="stop-color:#DFF69C"/>
		<stop  offset="0.3948" style="stop-color:#DCF598"/>
		<stop  offset="0.4781" style="stop-color:#D5F28A"/>
		<stop  offset="0.5651" style="stop-color:#C9ED74"/>
		<stop  offset="0.6547" style="stop-color:#B8E655"/>
		<stop  offset="0.7452" style="stop-color:#A2DD2E"/>
		<stop  offset="0.8344" style="stop-color:#88D200"/>
		<stop  offset="1" style="stop-color:#00A800"/>
	</radialGradient>
	<path class="st28" d="M506.6,251c0,0-0.2,29.1-6.8,62.8c-0.2-0.1-0.5-0.1-0.8,0.2c-2,1.6-3.9,3.4-5.6,5.2
		C499.2,299.7,504.5,276.4,506.6,251z"/>
	
		<radialGradient id="SVGID_30_" cx="5817.5703" cy="-4902.7783" r="96.3009" fx="5898.4077" fy="-4904.7563" gradientTransform="matrix(-9.030000e-02 -0.9572 0.9572 -9.030000e-02 5669.5771 5406.6245)" gradientUnits="userSpaceOnUse">
		<stop  offset="0" style="stop-color:#88D200"/>
		<stop  offset="0.6442" style="stop-color:#00A800"/>
		<stop  offset="1" style="stop-color:#004E00"/>
	</radialGradient>
	<path class="st29" d="M506.6,251c0,0,1.2,27.3-3.3,59.1c-0.2-0.1-0.5,0-0.7,0.2c-1.8,1.6-3.4,3.3-4.9,5.1
		C502.1,296.9,505.8,274.9,506.6,251z"/>
	
		<radialGradient id="SVGID_31_" cx="6346.5718" cy="-4423.3574" r="569.0726" fx="6322.8872" fy="-4432.0503" gradientTransform="matrix(-0.142 -0.9509 0.9509 -0.142 5569.0156 5299.2852)" gradientUnits="userSpaceOnUse">
		<stop  offset="0" style="stop-color:#FFFFFF"/>
		<stop  offset="0.319" style="stop-color:#DFF69C"/>
		<stop  offset="0.3948" style="stop-color:#DCF598"/>
		<stop  offset="0.4781" style="stop-color:#D5F28A"/>
		<stop  offset="0.5651" style="stop-color:#C9ED74"/>
		<stop  offset="0.6547" style="stop-color:#B8E655"/>
		<stop  offset="0.7452" style="stop-color:#A2DD2E"/>
		<stop  offset="0.8344" style="stop-color:#88D200"/>
		<stop  offset="1" style="stop-color:#00A800"/>
	</radialGradient>
	<path class="st30" d="M541.6,282.4c1-2.1,2-4.2,3-6.3c0.2-0.5,0.1-0.9-0.2-1.1c13.4-9.9,27.3-21.2,40.8-34.5
		C585.2,240.5,567.5,260.7,541.6,282.4z"/>
	
		<radialGradient id="SVGID_32_" cx="5865.001" cy="-4768.9512" r="81.5272" fx="5852.3237" fy="-4784.8569" gradientTransform="matrix(-9.030000e-02 -0.9572 0.9572 -9.030000e-02 5669.5771 5406.6245)" gradientUnits="userSpaceOnUse">
		<stop  offset="0" style="stop-color:#88D200"/>
		<stop  offset="0.6442" style="stop-color:#00A800"/>
		<stop  offset="1" style="stop-color:#004E00"/>
	</radialGradient>
	<path class="st31" d="M547.1,273.6c0.9-1.7,1.8-3.4,2.8-5.1c0.2-0.4,0.1-0.7-0.1-0.9c11.6-7.6,23.7-16.7,35.5-27.1
		C585.2,240.5,569.5,256.8,547.1,273.6z"/>
	
		<radialGradient id="SVGID_33_" cx="5356.1401" cy="-5218.5254" r="239.841" fx="5380.812" fy="-5277.2573" gradientTransform="matrix(-4.550000e-02 -1.0143 1.0218 -4.580000e-02 5902.9194 5419.1646)" gradientUnits="userSpaceOnUse">
		<stop  offset="0" style="stop-color:#FFFFFF"/>
		<stop  offset="0.319" style="stop-color:#DFF69C"/>
		<stop  offset="0.3948" style="stop-color:#DCF598"/>
		<stop  offset="0.4781" style="stop-color:#D5F28A"/>
		<stop  offset="0.5651" style="stop-color:#C9ED74"/>
		<stop  offset="0.6547" style="stop-color:#B8E655"/>
		<stop  offset="0.7452" style="stop-color:#A2DD2E"/>
		<stop  offset="0.8344" style="stop-color:#88D200"/>
		<stop  offset="1" style="stop-color:#00A800"/>
	</radialGradient>
	<path class="st32" d="M364.6,421.8c-0.8,0.3-1.3,0.8-2,1.3c-1,0.6-2.1,1.1-3.1,1.8c-1.6,1.1-3,2.4-4.6,3.4
		c6.9-16.7,24.2-63.5,25.8-120c0,0,3.1,64.7-15.7,113.5C364.9,421.7,364.8,421.7,364.6,421.8z"/>
	
		<radialGradient id="SVGID_34_" cx="5826.8037" cy="-5111.8525" r="186.7254" fx="5805.8599" fy="-5235.6914" gradientTransform="matrix(-9.030000e-02 -0.9572 0.9572 -9.030000e-02 5669.5771 5406.6245)" gradientUnits="userSpaceOnUse">
		<stop  offset="0" style="stop-color:#88D200"/>
		<stop  offset="0.6442" style="stop-color:#00A800"/>
		<stop  offset="1" style="stop-color:#004E00"/>
	</radialGradient>
	<path class="st33" d="M371,416.4c-0.7,0.3-1.2,0.8-1.8,1.3c-0.9,0.6-1.9,1.2-2.8,1.8c-1.4,1.1-2.7,2.4-4.2,3.4
		c5.7-16.1,19.7-61.2,18.6-114.6c0,0,5.9,61-9.5,108C371.2,416.3,371.1,416.3,371,416.4z"/>
	
		<radialGradient id="SVGID_35_" cx="6383.6494" cy="-5115.2534" r="720.2639" fx="5974.4971" fy="-5463.0913" gradientTransform="matrix(-9.030000e-02 -0.9572 0.9572 -9.030000e-02 5669.5771 5406.6245)" gradientUnits="userSpaceOnUse">
		<stop  offset="0" style="stop-color:#DFF69C"/>
		<stop  offset="0.3716" style="stop-color:#64F800"/>
		<stop  offset="0.8956" style="stop-color:#007100"/>
		<stop  offset="1" style="stop-color:#004400"/>
	</radialGradient>
	<path class="st34" d="M549.3,267.4c-0.4-0.1-0.8,0-1,0.4c-1.4,2.6-2.8,5.1-4.2,7.7c-0.2,0.3-0.1,0.6,0.1,0.9
		c-9.6,15.9-20.7,30.6-32.8,44.3c-0.3-0.3-0.7-0.5-1.1-0.1c-1.2,0.9-2.1,2.2-3.2,3.3c-1,1.1-2,2-2.6,3.4c-0.2,0.4-0.1,0.7,0.2,0.9
		c-17.6,18.9-37,36.1-57.3,52.5c-0.3-0.3-0.7-0.5-1.1-0.1c-2.8,2.3-5.5,4.6-8.4,6.7c-0.5,0.3-0.4,0.8-0.2,1.2
		c-13.9,11-28.2,21.8-42.4,32.6c-4.2,3.2-8.2,6.4-12.1,9.7c-0.3-0.2-0.8-0.3-1.2,0.1c-1.1,1.1-2.4,1.8-3.6,2.8
		c-1,0.9-1.9,1.9-3.1,2.8c-0.5,0.3-0.4,0.9-0.1,1.2c-34.4,30.9-57.9,65.5-68.9,93c-0.3,0.8-0.8,1.6-1.4,2.2c-1,0.9-2.1,0.9-3.2,0.7
		c-5-0.7-13.8-4.1-13.7-19.3c19-44.3,60.7-79.9,73.2-89.9c0.2,0.4,0.8,0.7,1.3,0.4c1.7-0.9,2.9-2.4,4.4-3.5c0.9-0.7,1.8-1.2,2.7-1.8
		c0.6-0.4,1.3-1.2,2-1.4c0.7-0.3,0.6-1.2,0.2-1.5c20-14.7,39.2-28.6,57.3-42.4c0.2,0.4,0.7,0.7,1.2,0.3c3.3-2.3,6.5-4.6,9.4-7.3
		c0.4-0.4,0.3-0.9-0.1-1.1c20.5-15.9,39.6-31.7,56.6-48.2c0.3,0.5,1,0.7,1.4,0.2c1.8-2.3,3.8-4.4,5.9-6.3c0.4-0.4,0.4-0.9,0.1-1.2
		c14-14.2,26.5-28.9,37.2-44.8c0.4,0.4,1.1,0.4,1.5-0.2c2-3.4,4.9-6.4,6.3-10.1c0.2-0.5-0.1-0.9-0.5-1.1
		c22.7-37.5,36.3-81.4,36.7-137.5C585.6,178.7,571.6,227.2,549.3,267.4z"/>
	
		<radialGradient id="SVGID_36_" cx="5547.6392" cy="-4686.5854" r="410.7144" fx="5752.0361" fy="-4481.5615" gradientTransform="matrix(-9.030000e-02 -0.9572 0.9572 -9.030000e-02 5669.5771 5406.6245)" gradientUnits="userSpaceOnUse">
		<stop  offset="0" style="stop-color:#FFFFFF"/>
		<stop  offset="0.319" style="stop-color:#DFF69C"/>
		<stop  offset="0.3948" style="stop-color:#DCF598"/>
		<stop  offset="0.4781" style="stop-color:#D5F28A"/>
		<stop  offset="0.5651" style="stop-color:#C9ED74"/>
		<stop  offset="0.6547" style="stop-color:#B8E655"/>
		<stop  offset="0.7452" style="stop-color:#A2DD2E"/>
		<stop  offset="0.8344" style="stop-color:#88D200"/>
		<stop  offset="1" style="stop-color:#00A800"/>
	</radialGradient>
	<path class="st35" d="M300.6,523.6c14-32,44.9-72.7,89.7-105.6C486.7,347,584,278.9,585,116.8c-0.4,56.1-14,100-36.7,137.5
		c0.4,0.2,0.7,0.6,0.5,1.1c-1.4,3.7-4.3,6.7-6.3,10.1c-0.3,0.6-1.1,0.5-1.5,0.2c-10.8,15.9-23.3,30.6-37.2,44.8
		c0.2,0.4,0.3,0.9-0.1,1.2c-2.1,2-4.1,4-5.9,6.3c-0.4,0.6-1.1,0.3-1.4-0.2c-17.1,16.5-36.1,32.3-56.6,48.2c0.3,0.3,0.5,0.7,0.1,1.1
		c-2.9,2.7-6.1,5-9.4,7.3c-0.5,0.3-1,0.1-1.2-0.3c-18.2,13.8-37.4,27.7-57.3,42.4c0.5,0.4,0.5,1.2-0.2,1.5s-1.4,1-2,1.4
		c-0.9,0.6-1.8,1.2-2.7,1.8c-1.5,1.1-2.7,2.6-4.4,3.5c-0.5,0.3-1.1,0-1.3-0.4c-11.8,9.5-49.6,41.7-69.8,82.5
		c0.4,6.8,1.5,13.9,5.5,17.6C296.9,524.4,299.1,526.6,300.6,523.6z"/>
	
		<radialGradient id="SVGID_37_" cx="5806.3979" cy="-5158.0933" r="163.0238" fx="5805.3403" fy="-5202.6519" gradientTransform="matrix(-5.330000e-02 -0.9599 0.9599 -5.330000e-02 5736.7061 5489.5996)" gradientUnits="userSpaceOnUse">
		<stop  offset="0" style="stop-color:#FFFFFF"/>
		<stop  offset="0.319" style="stop-color:#DFF69C"/>
		<stop  offset="0.3948" style="stop-color:#DCF598"/>
		<stop  offset="0.4781" style="stop-color:#D5F28A"/>
		<stop  offset="0.5651" style="stop-color:#C9ED74"/>
		<stop  offset="0.6547" style="stop-color:#B8E655"/>
		<stop  offset="0.7452" style="stop-color:#A2DD2E"/>
		<stop  offset="0.8344" style="stop-color:#88D200"/>
		<stop  offset="1" style="stop-color:#00A800"/>
	</radialGradient>
	<path class="st36" d="M545.4,257.2c-1.5,2.5-5,8.4-7.1,10.4c5.3-12.7,12.2-32.3,16.1-47.5c0,0-2.5,14.6-8.4,34.3
		C545.6,255.1,545.6,256.9,545.4,257.2z"/>
	
		<radialGradient id="SVGID_38_" cx="5881.5205" cy="-4864.5498" r="101.5914" fx="5870.1255" fy="-4931.9268" gradientTransform="matrix(-9.030000e-02 -0.9572 0.9572 -9.030000e-02 5669.5771 5406.6245)" gradientUnits="userSpaceOnUse">
		<stop  offset="0" style="stop-color:#88D200"/>
		<stop  offset="0.6442" style="stop-color:#00A800"/>
		<stop  offset="1" style="stop-color:#004E00"/>
	</radialGradient>
	<path class="st37" d="M546.2,256.5c-1.4,2.6-2.6,3.9-4.3,6.3c4.8-12.9,9.1-27.2,12.4-42.5c0,0-2,14.7-7,34.6
		C547,255.4,546.4,256.1,546.2,256.5z"/>
	
		<radialGradient id="SVGID_39_" cx="5915.7275" cy="-4687.5479" r="224.3569" fx="6075.2134" fy="-4529.7495" gradientTransform="matrix(-0.1248 -0.9534 0.9534 -0.1248 5598.813 5332.6782)" gradientUnits="userSpaceOnUse">
		<stop  offset="0" style="stop-color:#FFFFFF"/>
		<stop  offset="0.319" style="stop-color:#DFF69C"/>
		<stop  offset="0.3948" style="stop-color:#DCF598"/>
		<stop  offset="0.4781" style="stop-color:#D5F28A"/>
		<stop  offset="0.5651" style="stop-color:#C9ED74"/>
		<stop  offset="0.6547" style="stop-color:#B8E655"/>
		<stop  offset="0.7452" style="stop-color:#A2DD2E"/>
		<stop  offset="0.8344" style="stop-color:#88D200"/>
		<stop  offset="1" style="stop-color:#00A800"/>
	</radialGradient>
	<path class="st38" d="M374.8,438.2c1.1-0.9,2.3-1.7,3.3-2.8c0.1-0.1,0.2-0.3,0.2-0.4c24,2.2,57.7,2.9,94.1-3.8
		c0,0-52.2,13.7-100.7,9.9C372.8,440.2,373.7,439.1,374.8,438.2z"/>
	
		<radialGradient id="SVGID_40_" cx="5683.7773" cy="-4898.6157" r="102.1655" fx="5679.4458" fy="-4976.3096" gradientTransform="matrix(-9.030000e-02 -0.9572 0.9572 -9.030000e-02 5669.5771 5406.6245)" gradientUnits="userSpaceOnUse">
		<stop  offset="0" style="stop-color:#88D200"/>
		<stop  offset="0.6442" style="stop-color:#00A800"/>
		<stop  offset="1" style="stop-color:#004E00"/>
	</radialGradient>
	<path class="st39" d="M380.2,434.5c1.1-0.8,2.2-1.5,3.2-2.5c0.1-0.1,0.2-0.2,0.2-0.4c22.6,2.9,54.3,4.7,88.9-0.3
		c0,0-49.7,11.1-95.2,5.9C378.2,436.4,379.1,435.3,380.2,434.5z"/>
	
		<radialGradient id="SVGID_41_" cx="5584.9741" cy="-4793.2476" r="406.3964" fx="5659.1553" fy="-4756.0781" gradientTransform="matrix(-9.030000e-02 -0.9572 0.9572 -9.030000e-02 5669.5771 5406.6245)" gradientUnits="userSpaceOnUse">
		<stop  offset="0" style="stop-color:#FFFFFF"/>
		<stop  offset="0.319" style="stop-color:#DFF69C"/>
		<stop  offset="0.3948" style="stop-color:#DCF598"/>
		<stop  offset="0.4781" style="stop-color:#D5F28A"/>
		<stop  offset="0.5651" style="stop-color:#C9ED74"/>
		<stop  offset="0.6547" style="stop-color:#B8E655"/>
		<stop  offset="0.7452" style="stop-color:#A2DD2E"/>
		<stop  offset="0.8344" style="stop-color:#88D200"/>
		<stop  offset="1" style="stop-color:#00A800"/>
	</radialGradient>
	<path class="st40" d="M288,514.3c9.4-22.3,18.4-36.6,37.7-58.3c5.3-5.8,16.1-17.3,30.9-29.6c15-12.1,33.5-24.8,50.8-37.8
		c34.9-25.4,64.9-50.6,64.8-50.7c-0.3-0.2,30.8-24.7,57.3-58.6c27.6-33.5,43.1-78.6,45.9-93.9c6.5-28,8.3-44.5,9.7-68.6
		c0.3,24.1-0.6,40.9-7.1,69.3c-2.8,15.4-18.5,61.1-46.4,94.9c-26.7,34.3-57.9,58.9-57.6,59c0.1,0.1-30,25.5-64.9,50.9
		c-17.2,12.9-35.9,25.8-50.7,37.7c-14.6,12.2-25.4,23.6-30.6,29.3C308.5,479.4,298.9,492.8,288,514.3z"/>
	
		<radialGradient id="SVGID_42_" cx="6066.1406" cy="-4947.1763" r="440.8553" fx="6047.4497" fy="-5282.4341" gradientTransform="matrix(-9.030000e-02 -0.9572 0.9572 -9.030000e-02 5669.5771 5406.6245)" gradientUnits="userSpaceOnUse">
		<stop  offset="0" style="stop-color:#88D200"/>
		<stop  offset="0.6442" style="stop-color:#00A800"/>
		<stop  offset="1" style="stop-color:#004E00"/>
	</radialGradient>
	<path class="st41" d="M579.9,187.1c-2.5,15.6-15.1,62.7-40.3,99.1c-24.2,36.8-54.6,63.3-54.3,63.4c0.2,0.2-29.1,27.2-64.1,53.5
		c-17.3,13.4-35.8,26.7-49.8,40c-14,13.2-24.3,25.3-29.2,31.4c-16.8,21.4-25.9,34.9-35.1,54.8c-0.3,0.5-0.9,1.6-0.9,1.6
		c8.1-21.4,16.6-36,33.9-58.2c5-6.2,15.3-18.4,29.5-31.7c14.1-13.5,32.7-26.9,50-40.2c34.9-26.2,64.1-53.1,63.9-53.3
		c-0.3-0.1,30-26.4,53.9-62.9c25-36.1,37.4-82.7,40-98.1c5.2-28.7,6.8-45.3,7.8-69.8C585.7,141.2,585,158.1,579.9,187.1z"/>
	
		<radialGradient id="SVGID_43_" cx="5761.6665" cy="-5000.499" r="41.094" fx="5757.2588" fy="-4991.9609" gradientTransform="matrix(-9.030000e-02 -0.9572 0.9572 -9.030000e-02 5669.5771 5406.6245)" gradientUnits="userSpaceOnUse">
		<stop  offset="0.5706" style="stop-color:#006D00"/>
		<stop  offset="0.5913" style="stop-color:#218507"/>
		<stop  offset="0.616" style="stop-color:#409B0F"/>
		<stop  offset="0.644" style="stop-color:#5CAF15"/>
		<stop  offset="0.6756" style="stop-color:#72BE1A"/>
		<stop  offset="0.7125" style="stop-color:#83CA1D"/>
		<stop  offset="0.7582" style="stop-color:#8ED320"/>
		<stop  offset="0.8222" style="stop-color:#95D822"/>
		<stop  offset="1" style="stop-color:#97D922"/>
	</radialGradient>
	<path class="st42" d="M362.6,317.8c15.6,2.3,26.7,17,24.7,32.8s-16.3,26.8-31.9,24.6c-15.6-2.3-26.6-17-24.7-32.8
		C332.7,326.5,347,315.5,362.6,317.8z"/>
	
		<radialGradient id="SVGID_44_" cx="-1779.4479" cy="-14014.7676" r="106.3621" fx="-1752.8695" fy="-14010.5576" gradientTransform="matrix(-8.920000e-02 0.6819 0.8338 0.1191 11917.5342 3221.1841)" gradientUnits="userSpaceOnUse">
		<stop  offset="7.827310e-02" style="stop-color:#DFF695"/>
		<stop  offset="0.452" style="stop-color:#6DD100"/>
		<stop  offset="0.8743" style="stop-color:#006700"/>
		<stop  offset="1" style="stop-color:#005700"/>
	</radialGradient>
	<path class="st43" d="M365.1,322.4c13.7,1.9,23.2,15,21.4,29.1c-1.9,14.1-14.4,24-28.1,22c-13.6-1.9-23.2-15-21.4-29.1
		C338.9,330.3,351.4,320.4,365.1,322.4z"/>
	
		<radialGradient id="SVGID_45_" cx="-1757.7498" cy="-14006.0156" r="63.9411" fx="-1752.0106" fy="-14019.5869" gradientTransform="matrix(-8.920000e-02 0.6819 0.8338 0.1191 11917.5342 3221.1841)" gradientUnits="userSpaceOnUse">
		<stop  offset="0" style="stop-color:#FFFFFF"/>
		<stop  offset="0.3591" style="stop-color:#B0F458"/>
		<stop  offset="0.4284" style="stop-color:#A8ED43"/>
		<stop  offset="0.6626" style="stop-color:#8FD700"/>
		<stop  offset="1" style="stop-color:#C8FCE3"/>
	</radialGradient>
	<path class="st44" d="M365.5,323.6c13.1,1.9,22.3,14.4,20.6,27.9c-1.8,13.6-13.9,23-27,21.2c-13.1-1.9-22.3-14.4-20.5-27.9
		C340.3,331.2,352.4,321.7,365.5,323.6z"/>
	
		<radialGradient id="SVGID_46_" cx="-1766.708" cy="-14081.6455" r="85.7615" fx="-1761.259" fy="-14103.2881" gradientTransform="matrix(-8.920000e-02 0.6819 0.8338 0.1191 11917.5342 3221.1841)" gradientUnits="userSpaceOnUse">
		<stop  offset="0.1585" style="stop-color:#E3FFFF"/>
		<stop  offset="0.4973" style="stop-color:#C4F6B2"/>
		<stop  offset="0.5384" style="stop-color:#C3F5AE"/>
		<stop  offset="0.5837" style="stop-color:#BFF3A0"/>
		<stop  offset="0.6309" style="stop-color:#B8EF8A"/>
		<stop  offset="0.6796" style="stop-color:#AFEA6B"/>
		<stop  offset="0.7293" style="stop-color:#A3E344"/>
		<stop  offset="0.7791" style="stop-color:#95DA14"/>
		<stop  offset="0.7978" style="stop-color:#8FD700"/>
		<stop  offset="1" style="stop-color:#00AA00"/>
	</radialGradient>
	<path class="st45" d="M386.1,351.5c-1.6,12.5-12.1,21.6-24,21.4c-4.1-6.6-6.1-14.6-5.1-23c1.4-10.5,7.3-19.2,15.4-24.3
		C381.7,330.1,387.5,340.5,386.1,351.5z"/>
	
		<radialGradient id="SVGID_47_" cx="-1766.7096" cy="-14081.6377" r="85.7533" fx="-1761.2611" fy="-14103.2783" gradientTransform="matrix(-8.920000e-02 0.6819 0.8338 0.1191 11917.5342 3221.1841)" gradientUnits="userSpaceOnUse">
		<stop  offset="0.1585" style="stop-color:#FFFFFF"/>
		<stop  offset="0.4973" style="stop-color:#D4FCD8"/>
		<stop  offset="0.545" style="stop-color:#D1FCD4"/>
		<stop  offset="0.5976" style="stop-color:#C9FCC6"/>
		<stop  offset="0.6524" style="stop-color:#BBFBB0"/>
		<stop  offset="0.7089" style="stop-color:#A8FA91"/>
		<stop  offset="0.766" style="stop-color:#90FA6A"/>
		<stop  offset="0.7978" style="stop-color:#80F951"/>
		<stop  offset="1" style="stop-color:#38CD7A"/>
	</radialGradient>
	<path class="st46" d="M380.8,332.4c-0.3,9.7-1.1,21.7-2.7,34.5c-1.5,1.4-3.2,2.5-5.1,3.4c2.7-12.1,4.9-25.4,6.4-39.6
		C379.8,331.3,380.3,331.8,380.8,332.4z"/>
	
		<radialGradient id="SVGID_48_" cx="-1766.7062" cy="-14081.7197" r="85.8397" fx="-1761.2522" fy="-14103.3818" gradientTransform="matrix(-8.920000e-02 0.6819 0.8338 0.1191 11917.5342 3221.1841)" gradientUnits="userSpaceOnUse">
		<stop  offset="0.1585" style="stop-color:#DBE6F3"/>
		<stop  offset="0.4973" style="stop-color:#AAEDB9"/>
		<stop  offset="0.5376" style="stop-color:#A6ECB5"/>
		<stop  offset="0.5819" style="stop-color:#9AEAA7"/>
		<stop  offset="0.6282" style="stop-color:#87E691"/>
		<stop  offset="0.6758" style="stop-color:#6BE172"/>
		<stop  offset="0.7245" style="stop-color:#48DA4B"/>
		<stop  offset="0.7733" style="stop-color:#1ED21B"/>
		<stop  offset="0.7978" style="stop-color:#06CD00"/>
		<stop  offset="1" style="stop-color:#00A25E"/>
	</radialGradient>
	<path class="st47" d="M381.9,334c0.1,8.6-0.2,18.9-1,29.8c-1.4,1.8-3,3.3-4.8,4.6c1.9-11.2,3.4-23.4,4.2-36.5
		C380.9,332.6,381.4,333.3,381.9,334z"/>
	
		<radialGradient id="SVGID_49_" cx="-1758.4781" cy="-14008.583" r="86.5949" fx="-1757.4231" fy="-13973.8916" gradientTransform="matrix(-8.920000e-02 0.6819 0.8338 0.1191 11917.5342 3221.1841)" gradientUnits="userSpaceOnUse">
		<stop  offset="0.2075" style="stop-color:#FFFFFF"/>
		<stop  offset="0.5583" style="stop-color:#D8F69C"/>
		<stop  offset="0.5935" style="stop-color:#D6F598"/>
		<stop  offset="0.6322" style="stop-color:#D0F28A"/>
		<stop  offset="0.6727" style="stop-color:#C5EE74"/>
		<stop  offset="0.7143" style="stop-color:#B7E855"/>
		<stop  offset="0.7564" style="stop-color:#A5E02E"/>
		<stop  offset="0.7978" style="stop-color:#8FD700"/>
		<stop  offset="1" style="stop-color:#00AA00"/>
	</radialGradient>
	<path class="st48" d="M386.1,351.5c-1.8,13.6-13.9,23-27,21.2c-5.3-0.8-9.9-3.2-13.4-6.8c3.3,3,7.4,5.1,12.1,5.7
		c12.6,1.8,24.2-7.3,25.9-20.3c1.7-13-7.1-25.1-19.8-26.9c-6.1-0.9-12,0.8-16.6,4.3c4.9-4.1,11.4-6.1,18.2-5.2
		C378.6,325.5,387.8,338,386.1,351.5z"/>
	<path class="st49" d="M345.7,338.2c-2-1-4.3,0.7-5.3,3.7c-1,3.1-0.2,6.3,1.7,7.3c2,1,4.3-0.7,5.3-3.7
		C348.4,342.4,347.6,339.2,345.7,338.2z"/>
	
		<radialGradient id="SVGID_50_" cx="5826.5854" cy="-4983.9883" r="27.2401" fx="5823.6636" fy="-4978.3286" gradientTransform="matrix(-9.030000e-02 -0.9572 0.9572 -9.030000e-02 5669.5771 5406.6245)" gradientUnits="userSpaceOnUse">
		<stop  offset="0.5706" style="stop-color:#006D00"/>
		<stop  offset="0.5732" style="stop-color:#067104"/>
		<stop  offset="0.5927" style="stop-color:#2F8B1E"/>
		<stop  offset="0.6146" style="stop-color:#55A235"/>
		<stop  offset="0.6385" style="stop-color:#75B74A"/>
		<stop  offset="0.6648" style="stop-color:#91C85B"/>
		<stop  offset="0.6946" style="stop-color:#A7D669"/>
		<stop  offset="0.7294" style="stop-color:#B8E073"/>
		<stop  offset="0.7723" style="stop-color:#C3E87B"/>
		<stop  offset="0.8326" style="stop-color:#CAEC7F"/>
		<stop  offset="1" style="stop-color:#CCED80"/>
	</radialGradient>
	<path class="st50" d="M372.6,262.7c10.4,1.5,17.7,11.3,16.3,21.8c-1.3,10.5-10.8,17.8-21.1,16.3c-10.4-1.5-17.7-11.3-16.3-21.8
		C352.8,268.5,362.3,261.2,372.6,262.7z"/>
	
		<radialGradient id="SVGID_51_" cx="-1868.984" cy="-14023.7109" r="70.5076" fx="-1851.3651" fy="-14020.9199" gradientTransform="matrix(-8.920000e-02 0.6819 0.8338 0.1191 11917.5342 3221.1841)" gradientUnits="userSpaceOnUse">
		<stop  offset="7.827310e-02" style="stop-color:#DFF695"/>
		<stop  offset="0.452" style="stop-color:#6DD100"/>
		<stop  offset="0.8743" style="stop-color:#006700"/>
		<stop  offset="1" style="stop-color:#005700"/>
	</radialGradient>
	<path class="st51" d="M374.3,265.7c9.1,1.3,15.4,9.9,14.2,19.3c-1.2,9.4-9.6,15.9-18.6,14.6s-15.4-9.9-14.2-19.3
		C356.9,271,365.2,264.4,374.3,265.7z"/>
	
		<radialGradient id="SVGID_52_" cx="-1854.6022" cy="-14017.9131" r="42.3867" fx="-1850.7977" fy="-14026.9102" gradientTransform="matrix(-8.920000e-02 0.6819 0.8338 0.1191 11917.5342 3221.1841)" gradientUnits="userSpaceOnUse">
		<stop  offset="0" style="stop-color:#FFFFFF"/>
		<stop  offset="0.3591" style="stop-color:#B0F458"/>
		<stop  offset="0.4284" style="stop-color:#A8ED43"/>
		<stop  offset="0.6626" style="stop-color:#8FD700"/>
		<stop  offset="1" style="stop-color:#C8FCE3"/>
	</radialGradient>
	<path class="st52" d="M374.6,266.5c8.7,1.2,14.8,9.5,13.6,18.5c-1.2,9-9.2,15.3-17.9,14c-8.7-1.2-14.8-9.5-13.6-18.5
		C357.9,271.6,365.9,265.3,374.6,266.5z"/>
	
		<radialGradient id="SVGID_53_" cx="-1860.5388" cy="-14068.0479" r="56.8544" fx="-1856.9265" fy="-14082.3955" gradientTransform="matrix(-8.920000e-02 0.6819 0.8338 0.1191 11917.5342 3221.1841)" gradientUnits="userSpaceOnUse">
		<stop  offset="0.1585" style="stop-color:#E3FFFF"/>
		<stop  offset="0.4973" style="stop-color:#C4F6B2"/>
		<stop  offset="0.5384" style="stop-color:#C3F5AE"/>
		<stop  offset="0.5837" style="stop-color:#BFF3A0"/>
		<stop  offset="0.6309" style="stop-color:#B8EF8A"/>
		<stop  offset="0.6796" style="stop-color:#AFEA6B"/>
		<stop  offset="0.7293" style="stop-color:#A3E344"/>
		<stop  offset="0.7791" style="stop-color:#95DA14"/>
		<stop  offset="0.7978" style="stop-color:#8FD700"/>
		<stop  offset="1" style="stop-color:#00AA00"/>
	</radialGradient>
	<path class="st53" d="M388.2,285.1c-1.1,8.3-8,14.3-15.9,14.2c-2.7-4.3-4.1-9.7-3.3-15.2c0.9-6.9,4.8-12.7,10.2-16.1
		C385.3,270.9,389.1,277.7,388.2,285.1z"/>
	
		<radialGradient id="SVGID_54_" cx="-1855.0852" cy="-14019.6152" r="57.4016" fx="-1854.3859" fy="-13996.6191" gradientTransform="matrix(-8.920000e-02 0.6819 0.8338 0.1191 11917.5342 3221.1841)" gradientUnits="userSpaceOnUse">
		<stop  offset="0.2075" style="stop-color:#FFFFFF"/>
		<stop  offset="0.5583" style="stop-color:#D8F69C"/>
		<stop  offset="0.5935" style="stop-color:#D6F598"/>
		<stop  offset="0.6322" style="stop-color:#D0F28A"/>
		<stop  offset="0.6727" style="stop-color:#C5EE74"/>
		<stop  offset="0.7143" style="stop-color:#B7E855"/>
		<stop  offset="0.7564" style="stop-color:#A5E02E"/>
		<stop  offset="0.7978" style="stop-color:#8FD700"/>
		<stop  offset="1" style="stop-color:#00AA00"/>
	</radialGradient>
	<path class="st54" d="M388.2,285.1c-1.2,9-9.2,15.3-17.9,14c-3.5-0.5-6.5-2.1-8.9-4.5c2.2,2,4.9,3.4,8,3.8
		c8.4,1.2,16.1-4.8,17.2-13.5c1.1-8.6-4.7-16.6-13.1-17.8c-4-0.6-7.9,0.6-11,2.8c3.3-2.7,7.6-4.1,12-3.4
		C383.3,267.8,389.3,276.1,388.2,285.1z"/>
	<path class="st49" d="M361.4,276.2c-1.3-0.6-2.9,0.5-3.5,2.5c-0.7,2-0.2,4.2,1.1,4.8c1.3,0.6,2.9-0.5,3.5-2.5
		C363.2,279,362.7,276.9,361.4,276.2z"/>
</g>
</svg>
